/* XPM */
static char *ebc9c528219a498bdb41b3f495c8b873[] = {
/* columns rows colors chars-per-pixel */
"32 32 80 1 ",
"  c #1B1B1B",
". c #222223",
"X c #272728",
"o c #2B2C2D",
"O c #312E2C",
"+ c #2F2F30",
"@ c #313132",
"# c #3B3B3B",
"$ c #705E1F",
"% c #71601F",
"& c #6D5C20",
"* c #696A6D",
"= c #86581A",
"- c #8D5C18",
"; c #FF9B00",
": c #FFA401",
"> c #FFAC01",
", c #FDAF0B",
"< c #FFB201",
"1 c #FFBD01",
"2 c #F7AA1C",
"3 c #F9AC1E",
"4 c #F2AC2B",
"5 c #EEBE3D",
"6 c #F0B835",
"7 c #FFC401",
"8 c #FFCB02",
"9 c #FFD202",
"0 c #FBCF17",
"q c #F9CF25",
"w c #ECC03A",
"e c #D8A857",
"r c #ECA640",
"t c #ECA74A",
"y c #E9AD4C",
"u c #E6BF57",
"i c #F0BF51",
"p c #D5AB6E",
"a c #CEAD74",
"s c #E1B476",
"d c #E5BF79",
"f c #F5CC42",
"g c #E5C256",
"h c #F0CF5F",
"j c #F0D25F",
"k c #93969A",
"l c #95999D",
"z c #A1A7AE",
"x c #A3A8AF",
"c c #B4ADA7",
"v c #B6B0A8",
"b c #A5ABB2",
"n c #A9AEB5",
"m c #ABB1B7",
"M c #AEB2B9",
"N c #B2B6BC",
"B c #B6B9BF",
"V c #E0BC82",
"C c #C1B4A7",
"Z c #DCC28B",
"A c #E1C48E",
"S c #E1C790",
"D c #CDC0B2",
"F c #D2C5B5",
"G c #DBCDBE",
"H c #B6BAC1",
"J c #B9BDC2",
"K c #BEC1C6",
"L c #BFC3C8",
"P c #C2C5CA",
"I c #C6C9CD",
"U c #C8CBCE",
"Y c #CBCDD1",
"T c #CED0D5",
"R c #D1D3D7",
"E c #D3D5D9",
"W c #D6D8DC",
"Q c #D9DBDE",
"! c #DBDEE1",
"~ c None",
/* pixels */
"~~~~~~~~~~~~~,>><><~~~~~~~~~~~~~",
"~~~~~~~~~~~~~999999~~~~~~~~~~~~~",
"~~~~~~~~~~~~~q99890~~~~~~~~~~~~~",
"~~~!!!!!!!!!!j8778f!!!!!!!!!!~~~",
"~~~Q!!!!!!!!Qh7777f!!!!!!!!Q!~~~",
"~~~QQQQIMmHTTg1117wURIMMNEQQ!~~~",
"~~~QWQIBWWKxHg11115KMnRWTmQWQ~~~",
"~~WWEQLNWWcDGi1<<<6CFvPQTbQEQ~~~",
"~~EEEERzNm433,<<>>,224nJbJEEW~~~",
"~~EEEEEHzNS>>>>:>>>>,ZIxxTEER~~~",
"~~RRRRRKbTRS::::::::dRRJbEERRR~~",
"~~TTTTTbUTYLa::::::eKURYmKTRRR~~",
"~~TTTYKmTTTTTV;;;;yYTTTYJMTTTT~~",
"~~TYYYJMIIYYYIp;;rHTYTYYLnYTTU~~",
"~~YYYYNBKLYTYLLstUJYYYYYKbYYUT~~",
"~~UUUUMNJJLLUUKKJJIILYUTJbUYUU~~",
"~~UIIINNnILNIIbzzzPIJJUIJxIIII~~",
"~~IIIIMnPInKIPPzzJLIKbLIMbIIII~~",
"~~PIPPJzzbznMBPBnIJMmxzzxHIIPI~~",
"~~PPPPPKBbzznNLJHPNnxxxBLILPPP~~",
"~~PKPLLBbNnzmNKJBKMmznNbHPPPPP~~",
"~~KKKLNMKBbbzJJnnJJxbbNKMMJKKK~~",
"~PKKJmBKBnJbznxJJbnzbJnNJJNKKKJ~",
"~JJJKJKBnJbBnzNKJNzMBbJMHJJJJKJ~",
"~JJJJJJNJnMJHzzxxzbJBMMJNJJJJJJ~",
"~HJHJBBJBbJJJBbzxnBJHBnBJHJJJBJ~",
"~HBNJBBBnBBHBBBBBBBBBBBnHHBBBBB~",
"~*kkkkkklkkkkkkkkkkkkkklkkklkk*~",
"~ .XOoooXoooooooX+oooooo+++@O. ~",
"~ .Xoooooo&%$$$%%%%$$$X++++#X. ~",
"~ .Xoooooo=-----------Oo++@#X. ~",
"~~.XooooooooooooXooo+Xoo+X++O.~~"
};
