/* XPM */
static char * debian_installer_launcher_xpm[] = {
"32 32 281 2",
"  	c None",
". 	c #315892",
"+ 	c #5B7DAA",
"@ 	c #6B8AB7",
"# 	c #7290B8",
"$ 	c #6484B0",
"% 	c #40679C",
"& 	c #2F568F",
"* 	c #6A8AB4",
"= 	c #8EAACC",
"- 	c #91ABCE",
"; 	c #91ACCE",
"> 	c #8EA9CC",
", 	c #8AA7CB",
"' 	c #8BA7CB",
") 	c #819CC2",
"! 	c #43669B",
"~ 	c #2C528C",
"{ 	c #87A0C1",
"] 	c #97B0CF",
"^ 	c #86A1C6",
"/ 	c #84A1C6",
"( 	c #91ABCD",
"_ 	c #85A3C9",
": 	c #819FC6",
"< 	c #7C9BC4",
"[ 	c #84A1C7",
"} 	c #5376A7",
"| 	c #29518C",
"1 	c #7D96BB",
"2 	c #5D7CA9",
"3 	c #2E5690",
"4 	c #27518D",
"5 	c #365D95",
"6 	c #7794BD",
"7 	c #88A4CA",
"8 	c #7D9DC5",
"9 	c #7899C3",
"0 	c #7395C0",
"a 	c #829EC5",
"b 	c #43679C",
"c 	c #4F709F",
"d 	c #395C95",
"e 	c #214D89",
"f 	c #7290BC",
"g 	c #7596C1",
"h 	c #7093BF",
"i 	c #6C90BD",
"j 	c #7A98BE",
"k 	c #234E8B",
"l 	c #325790",
"m 	c #325992",
"n 	c #85A1C7",
"o 	c #7193BF",
"p 	c #688CBB",
"q 	c #7B9BC4",
"r 	c #496DA1",
"s 	c #8A8A8A",
"t 	c #A5A5A5",
"u 	c #A4A4A4",
"v 	c #A3A3A3",
"w 	c #7F8A9B",
"x 	c #7794BB",
"y 	c #6D90BD",
"z 	c #6489BA",
"A 	c #668BBB",
"B 	c #6885AC",
"C 	c #9B9B9C",
"D 	c #9B9B9B",
"E 	c #9A9A9A",
"F 	c #989898",
"G 	c #919191",
"H 	c #535353",
"I 	c #ADADAD",
"J 	c #F3F3F3",
"K 	c #ECECEC",
"L 	c #EDEDED",
"M 	c #DADDE3",
"N 	c #728FB6",
"O 	c #6B8FBD",
"P 	c #6389B9",
"Q 	c #6086B8",
"R 	c #5C84B6",
"S 	c #7A97BC",
"T 	c #C3CAD5",
"U 	c #E5E5E5",
"V 	c #E4E4E4",
"W 	c #E3E3E3",
"X 	c #BBBBBB",
"Y 	c #545454",
"Z 	c #EBEBEB",
"` 	c #D5D9DD",
" .	c #4E6F9E",
"..	c #5C7BA7",
"+.	c #5D7DA9",
"@.	c #5E7DA9",
"#.	c #6F8CB4",
"$.	c #6C8FBD",
"%.	c #5E85B7",
"&.	c #5B83B5",
"*.	c #5780B4",
"=.	c #819DC3",
"-.	c #5C7BA8",
";.	c #6280AA",
">.	c #5F7EA9",
",.	c #446799",
"'.	c #AAB5C4",
").	c #5F5F5F",
"!.	c #858585",
"~.	c #F0F0F0",
"{.	c #BAC3D0",
"].	c #6180AC",
"^.	c #7F9EC6",
"/.	c #7293C0",
"(.	c #7193C0",
"_.	c #6287B8",
":.	c #5981B5",
"<.	c #567FB3",
"[.	c #537CB2",
"}.	c #668BBA",
"|.	c #6A8DBC",
"1.	c #678BBB",
"2.	c #7295BF",
"3.	c #809CC1",
"4.	c #6E86AB",
"5.	c #DCDCDC",
"6.	c #DFDFDF",
"7.	c #9D9D9D",
"8.	c #CFCFCF",
"9.	c #E1E1E1",
"0.	c #AEBACB",
"a.	c #6584B0",
"b.	c #6E92BE",
"c.	c #5B82B5",
"d.	c #547DB2",
"e.	c #527BB1",
"f.	c #4A76AE",
"g.	c #416FAA",
"h.	c #3B6AA7",
"i.	c #4370AB",
"j.	c #7B99C0",
"k.	c #5D7BA6",
"l.	c #DADADB",
"m.	c #D9D9D9",
"n.	c #D8D8D8",
"o.	c #D3D3D3",
"p.	c #5B5B5B",
"q.	c #EFEFEF",
"r.	c #E0E0E0",
"s.	c #E7E7E7",
"t.	c #E6E6E6",
"u.	c #9CACC3",
"v.	c #6887B1",
"w.	c #5D84B6",
"x.	c #4874AD",
"y.	c #4673AC",
"z.	c #3F6DA9",
"A.	c #3767A5",
"B.	c #3465A4",
"C.	c #3868A6",
"D.	c #7796C0",
"E.	c #5574A2",
"F.	c #DADBDC",
"G.	c #DDDDDD",
"H.	c #DBDBDB",
"I.	c #757575",
"J.	c #E9E9E9",
"K.	c #E2E2E2",
"L.	c #DEDEDE",
"M.	c #8498B5",
"N.	c #6081AF",
"O.	c #4975AD",
"P.	c #3566A5",
"Q.	c #7394BF",
"R.	c #5171A1",
"S.	c #CCCFD2",
"T.	c #DADADA",
"U.	c #B4B4B4",
"V.	c #D7D7D7",
"W.	c #D5D5D5",
"X.	c #728AAC",
"Y.	c #6989B4",
"Z.	c #5475A4",
"`.	c #BCC1C8",
" +	c #D2D2D2",
".+	c #585858",
"++	c #747474",
"@+	c #D4D4D4",
"#+	c #D0D0D0",
"$+	c #627DA4",
"%+	c #7190BA",
"&+	c #4471AB",
"*+	c #6288B8",
"=+	c #5C7CA9",
"-+	c #A7B0BC",
";+	c #CBCBCB",
">+	c #CECECE",
",+	c #8E8E8E",
"'+	c #D6D6D6",
")+	c #CDCDCD",
"!+	c #C9C9CA",
"~+	c #58769F",
"{+	c #7896BE",
"]+	c #6187B8",
"^+	c #6684AF",
"/+	c #919FB1",
"(+	c #C6C6C6",
"_+	c #CACACA",
":+	c #C4C4C4",
"<+	c #555555",
"[+	c #D1D1D1",
"}+	c #C7C7C9",
"|+	c #52719E",
"1+	c #6685B0",
"2+	c #7F92AD",
"3+	c #C9C9C9",
"4+	c #6B6B6B",
"5+	c #8D8D8D",
"6+	c #C7C9CB",
"7+	c #899AB2",
"8+	c #A2A2A2",
"9+	c #E8E8E8",
"0+	c #595959",
"a+	c #C5C5C5",
"b+	c #BABABA",
"c+	c #B9B9B9",
"d+	c #B7B7B7",
"e+	c #B6B6B6",
"f+	c #B5B5B5",
"g+	c #B2B2B2",
"h+	c #B1B1B1",
"i+	c #B0B0B0",
"j+	c #AFAFAF",
"k+	c #AEAEAE",
"l+	c #ACACAC",
"m+	c #ABABAB",
"n+	c #AAAAAA",
"o+	c #A9A9A9",
"p+	c #A7A7A7",
"q+	c #A6A6A6",
"r+	c #A1A1A1",
"s+	c #A0A0A0",
"t+	c #9F9F9F",
"u+	c #969696",
"v+	c #9C9C9C",
"w+	c #A8A8A8",
"x+	c #B8B8B8",
"y+	c #B3B3B3",
"z+	c #999999",
"A+	c #5A5A5A",
"B+	c #4D4D4D",
"C+	c #C0C0C0",
"D+	c #C8C8C8",
"E+	c #C2C2C2",
"F+	c #C7C7C7",
"G+	c #C3C3C3",
"H+	c #C1C1C1",
"I+	c #BFBFBF",
"J+	c #BDBDBD",
"K+	c #BCBCBC",
"L+	c #4F4F4F",
"M+	c #646464",
"N+	c #949494",
"O+	c #979797",
"P+	c #939393",
"Q+	c #929292",
"R+	c #8F8F8F",
"S+	c #8C8C8C",
"T+	c #888888",
"U+	c #878787",
"V+	c #838383",
"W+	c #828282",
"X+	c #818181",
"Y+	c #808080",
"Z+	c #7E7E7E",
"`+	c #7D7D7D",
" @	c #7C7C7C",
".@	c #7B7B7B",
"+@	c #7A7A7A",
"@@	c #797979",
"#@	c #636363",
"                                                                ",
"                                                                ",
"                . + @ # $ %                                     ",
"            & * = - ; > , ' ) !                                 ",
"          ~ { ] ^ / ( ' _ : < [ }                               ",
"        | 1 2 3   4 5 6 7 8 9 0 a b                             ",
"        c d           e f 8 g h i j k                           ",
"        l               m n o i p q r                           ",
"              s t u v v w x y p z A B C D D E F G H             ",
"            I J K L K K M N O P Q R S T U U V W V X             ",
"          Y Z `  ...+.+.@.#.$.%.&.*.=.-.;.>.>.,.'.U ).          ",
"          !.~.W {.].^.o /.(._.:.<.[.}.|.1.2.3.4.5.6.7.          ",
"          8.U 9.V 0.a.b.c.:.*.d.e.f.g.h.i.j.k.l.m.n.o.          ",
"        p.q.r.W s.t.u.v.w.x.y.z.A.B.B.C.D.E.F.G.H.n.W I.        ",
"        v J.K.U K.6.L.M.N.O.B.B.B.B.P.Q.R.S.m.m.T.T.T.U.        ",
"        L.6.6.L.H.V.W.W.X.Y.y.B.B.B.$.Z.`. +o.W.V.n.V.5..+      ",
"      ++L 5.L.n.W.W.@+@+#+$+%+&+B.*+=+-+;+>+#+ +W.V.T.5.,+      ",
"      X W m.6.W.'+'+@+#+)+!+~+{+]+^+/+(+_+)+8. +o.5.'+W.:+      ",
"    <+t.H.T.5.W 5.V.W.[+>+)+}+|+1+2+3+;+)+8.[+@+6.5. +W.G.4+    ",
"    5+s.T.H.T.T.U W 5.'+ +[+8.6+7+8.#+ +o.'+L.U n.@+W.@+V.8+    ",
"    ;+5.t.9.H.H.H.G.W 9+U K.6.L.5.L.K.V t.W G.'+'+W.n.t.W. +Y   ",
"    J.T.T.m.T.T.T.T.H.H.5.L.9.V U K.6.H.n.V.V.'+'+W.@+W.o.K.0+  ",
"    G.K.W W W K.K.K.9.9.9.r.6.6.L.L.G.G.G.5.H.H.H.T.T.m.m.a+p.  ",
"    W.X X b+c+d+e+f+U.g+h+i+j+k+l+m+n+o+p+q+t u 8+r+s+t+t+j+p.  ",
"    o.X X D u+v+8+t w+m+k+I k+I I m+o+w+x+d+q+q+U.y+v I t+I p.  ",
"     +X b+u+5+u+v+8+q+o+l+k+k+I l+n+o+w+x+d+q+t U.y+8+I t+l+p.  ",
"    [+X c+u z+z+v+8+q+o+l+I I I l+o+w+p+x+d+t u U.y+8+I t+m+A+  ",
"  B+>+b+c+C+(+D+E+b+c+U.g+j+k+I n+o+w+q+d+e+t u y+y+8+I t+n+.+  ",
"    :+F+G+E+H+I+J+K+X b+c+e+f+U.y+h+j+k+I m+o+w+p+q+u t u q+L+  ",
"    M+N+O+u+N+P+Q+G R+,+5+S+s T+T+U+!.V+W+X+Y+Z+`+ @.@+@@@#@    ",
"                                                                ",
"                                                                "};
